<?xml version="1.0" standalone="no"?><!DOCTYPE svg PUBLIC "-//W3C//DTD SVG 1.1//EN" "http://www.w3.org/Graphics/SVG/1.1/DTD/svg11.dtd"><svg t="1596906949852" class="icon" viewBox="0 0 1024 1024" version="1.1" xmlns="http://www.w3.org/2000/svg" p-id="1205" xmlns:xlink="http://www.w3.org/1999/xlink" width="64" height="64"><defs><style type="text/css"></style></defs><path d="M499.2 951.466667c-234.666667 0-426.666667-192-426.666667-426.666667 0-17.066667 0-38.4 4.266667-55.466667 4.266667-12.8 12.8-17.066667 25.6-17.066666 12.8 4.266667 17.066667 12.8 17.066667 25.6-4.266667 12.8-4.266667 29.866667-4.266667 46.933333 0 213.333333 170.666667 384 384 384s384-170.666667 384-384-170.666667-384-384-384c-25.6 0-46.933333 4.266667-72.533333 8.533333-12.8 0-21.333333-4.266667-25.6-17.066666 0-12.8 4.266667-21.333333 17.066666-25.6 25.6-4.266667 51.2-8.533333 81.066667-8.533334 234.666667 0 426.666667 192 426.666667 426.666667s-192 426.666667-426.666667 426.666667z" fill="#2c2c2c" p-id="1206"></path><path d="M119.466667 418.133333h-8.533334c-8.533333-4.266667-17.066667-17.066667-12.8-29.866666 42.666667-119.466667 128-213.333333 238.933334-256 12.8-4.266667 21.333333 0 25.6 12.8 4.266667 12.8 0 21.333333-12.8 25.6C256 213.333333 174.933333 298.666667 140.8 405.333333c-4.266667 8.533333-12.8 12.8-21.333333 12.8z" fill="#2c2c2c" p-id="1207"></path><path d="M494.933333 260.266667c34.133333 0 64 29.866667 64 64s-29.866667 64-64 64-64-29.866667-64-64 29.866667-64 64-64m0-42.666667c-59.733333 0-106.666667 46.933333-106.666666 106.666667s46.933333 106.666667 106.666666 106.666666 106.666667-46.933333 106.666667-106.666666-46.933333-106.666667-106.666667-106.666667zM503.466667 665.6c34.133333 0 64 29.866667 64 64s-29.866667 64-64 64-64-29.866667-64-64 25.6-64 64-64m0-42.666667c-59.733333 0-106.666667 46.933333-106.666667 106.666667s46.933333 106.666667 106.666667 106.666667 106.666667-46.933333 106.666666-106.666667-46.933333-106.666667-106.666666-106.666667zM298.666667 465.066667c34.133333 0 64 29.866667 64 64s-29.866667 64-64 64-64-29.866667-64-64 25.6-64 64-64m0-42.666667c-59.733333 0-106.666667 46.933333-106.666667 106.666667s46.933333 106.666667 106.666667 106.666666 106.666667-46.933333 106.666666-106.666666S354.133333 422.4 298.666667 422.4zM704 460.8c34.133333 0 64 29.866667 64 64s-29.866667 64-64 64-64-29.866667-64-64 25.6-64 64-64m0-42.666667c-59.733333 0-106.666667 46.933333-106.666667 106.666667s46.933333 106.666667 106.666667 106.666667 106.666667-46.933333 106.666667-106.666667-51.2-106.666667-106.666667-106.666667zM499.2 507.733333c12.8 0 21.333333 8.533333 21.333333 21.333334s-8.533333 21.333333-21.333333 21.333333-21.333333-8.533333-21.333333-21.333333 8.533333-21.333333 21.333333-21.333334m0-42.666666c-34.133333 0-64 29.866667-64 64s29.866667 64 64 64 64-29.866667 64-64-29.866667-64-64-64z" fill="#2c2c2c" p-id="1208"></path><path d="M900.266667 951.466667h-426.666667c-12.8 0-21.333333-8.533333-21.333333-21.333334s8.533333-21.333333 21.333333-21.333333h426.666667c12.8 0 21.333333 8.533333 21.333333 21.333333s-8.533333 21.333333-21.333333 21.333334z" fill="#2c2c2c" p-id="1209"></path></svg>